<svg xmlns="http://www.w3.org/2000/svg" viewBox="0 0 52.55 52.55"><defs><style>.cls-1{fill:#304771;}.cls-2{fill:#e9e3d3;}.cls-3{opacity:0.3;}</style></defs><g id="Calque_2" data-name="Calque 2"><g id="Explosion"><circle class="cls-1" cx="26.27" cy="26.27" r="26.27"/><path class="cls-2" d="M38.86,31.66A12.12,12.12,0,0,1,28.27,45.07a12.85,12.85,0,0,1-14.49-10c-1-5.38,3.16-9.75,3.16-9.75l11-3.68S38.08,23.71,38.86,31.66Z"/><path class="cls-2" d="M28.29,45.17A12.94,12.94,0,0,1,13.66,35.08c-1-5.37,3.15-9.8,3.19-9.84l0,0,11-3.7h0c.1,0,10.28,2.18,11.06,10.12h0A12.23,12.23,0,0,1,28.29,45.17ZM17,25.4c-.3.33-4.09,4.56-3.11,9.64A12.7,12.7,0,0,0,28.25,45a12,12,0,0,0,10.5-13.29C38,24.11,28.54,21.89,27.9,21.75Z"/><g class="cls-3"><path class="cls-1" d="M16.39,29.54l1.1.64s-1.91,2.21-.45,6.44a7.81,7.81,0,0,0,2.82,3.62l-.63.77s-2.3-.86-3.89-5.11A8.09,8.09,0,0,1,16.39,29.54Z"/></g><path class="cls-2" d="M31.5,10.92c-.12.45-1.83.68-2.14.74-.84.18-1.69.33-2.54.47a31.9,31.9,0,0,0-5,1,4.17,4.17,0,0,0-2.74,2.34,6.09,6.09,0,0,0,.36,4.17,1,1,0,0,0,.19.34.78.78,0,0,0,0,.58l-.35.12c-1.37.48-2.13,1.73-1.69,2.76h0l8.22-2.87a2.64,2.64,0,0,0-3.32-1l-.34.12a1,1,0,0,0-.64-.54.89.89,0,0,0-.06-.31c-.43-1.3-.88-2.95.78-3.67a20.17,20.17,0,0,1,4.63-1c2.26-.37,6.15-.54,6.79-3C34.05,9.9,31.83,9.67,31.5,10.92Z"/><path class="cls-2" d="M29.76,10.29a1,1,0,1,0-.34-2A1,1,0,1,0,29.76,10.29Z"/><path class="cls-2" d="M33.92,7.26a1,1,0,1,0,.33,2A1,1,0,1,0,33.92,7.26Z"/><path class="cls-2" d="M35.67,11.14a1,1,0,1,0,.33,2A1,1,0,1,0,35.67,11.14Z"/></g></g></svg>