<svg xmlns="http://www.w3.org/2000/svg" viewBox="0 0 25.57 38.08"><defs><style>.cls-1{fill:#304771;}.cls-2{fill:#e9e3d3;opacity:0.2;}</style></defs><g id="Calque_2" data-name="Calque 2"><g id="Calque_1-2" data-name="Calque 1"><path class="cls-1" d="M25.36,24.4A12.11,12.11,0,0,1,14.77,37.81a12.83,12.83,0,0,1-14.49-10c-1-5.39,3.16-9.75,3.16-9.75l11-3.68S24.58,16.45,25.36,24.4Z"/><path class="cls-1" d="M14.79,37.92A12.94,12.94,0,0,1,.16,27.83C-.84,22.45,3.31,18,3.35,18h0l11-3.7h0c.15,0,10.35,2.17,11.15,10.1h0A12.24,12.24,0,0,1,14.79,37.92ZM3.5,18.15c-.3.33-4.09,4.55-3.11,9.64a12.7,12.7,0,0,0,14.35,9.92,12,12,0,0,0,10.5-13.3C24.5,16.86,15,14.63,14.4,14.49Z"/><path class="cls-1" d="M18,3.67c-.12.45-1.83.67-2.14.74-.84.18-1.69.32-2.54.46a33.78,33.78,0,0,0-5,1,4.16,4.16,0,0,0-2.7,2.41A6.08,6.08,0,0,0,6,12.46a.88.88,0,0,0,.19.34.73.73,0,0,0,0,.58l-.35.12c-1.37.48-2.13,1.72-1.69,2.76h0l8.22-2.88a2.66,2.66,0,0,0-3.32-1l-.34.12A1,1,0,0,0,8.05,12,1.7,1.7,0,0,0,8,11.65c-.43-1.31-.88-3,.78-3.67A19.72,19.72,0,0,1,13.4,7c2.26-.38,6.15-.54,6.79-3C20.55,2.64,18.33,2.42,18,3.67Z"/><path class="cls-1" d="M16.26,3a1,1,0,0,0,.83-1.17A1,1,0,0,0,15.92,1a1,1,0,0,0-.83,1.17A1,1,0,0,0,16.26,3Z"/><path class="cls-1" d="M20.42,0a1,1,0,1,0,1.16.84A1,1,0,0,0,20.42,0Z"/><path class="cls-1" d="M22.17,3.88a1,1,0,1,0,1.16.84A1,1,0,0,0,22.17,3.88Z"/><path class="cls-2" d="M2.89,22.28l1.1.64s-1.91,2.21-.45,6.44A7.78,7.78,0,0,0,6.36,33l-.63.77s-2.3-.87-3.89-5.12A8.07,8.07,0,0,1,2.89,22.28Z"/></g></g></svg>