<svg xmlns="http://www.w3.org/2000/svg" viewBox="0 0 52.55 52.55"><defs><style>.cls-1{fill:#304771;}.cls-2{fill:#e9e3d3;}</style></defs><g id="Calque_2" data-name="Calque 2"><g id="Foule"><circle class="cls-1" cx="26.27" cy="26.27" r="26.27"/><ellipse class="cls-2" cx="26.27" cy="20.87" rx="4.96" ry="4.79"/><ellipse class="cls-2" cx="12.82" cy="16.13" rx="4.96" ry="4.79"/><ellipse class="cls-2" cx="39.65" cy="16.13" rx="4.96" ry="4.79"/><path class="cls-2" d="M16.78,29.29c0-1.8,1.84-3.27,3.83-3.27H21v-1c0-1.79-1.84-3.26-3.83-3.26h-9c-2,0-3.83,1.47-3.83,3.26v9.6s6.61,2.47,12.52,1.48Z"/><path class="cls-2" d="M35.77,29.2c0-1.8-1.84-3.27-3.83-3.27H31.6V25c0-1.79,1.84-3.26,3.83-3.26h9c2,0,3.83,1.47,3.83,3.26v9.6S41.68,37,35.77,36.05Z"/><path class="cls-2" d="M34.77,39.5V29.9c0-1.8-1.84-3.27-3.83-3.27h-9c-2,0-3.83,1.47-3.83,3.27v9.6S28.4,43.34,34.77,39.5Z"/></g></g></svg>