<svg xmlns="http://www.w3.org/2000/svg" viewBox="0 0 43.92 29.87"><defs><style>.cls-1{fill:#304771;}</style></defs><g id="Calque_2" data-name="Calque 2"><g id="Calque_2-2" data-name="Calque 2"><ellipse class="cls-1" cx="21.93" cy="9.53" rx="4.96" ry="4.79"/><ellipse class="cls-1" cx="8.48" cy="4.79" rx="4.96" ry="4.79"/><ellipse class="cls-1" cx="35.31" cy="4.79" rx="4.96" ry="4.79"/><path class="cls-1" d="M12.44,18c0-1.8,1.84-3.27,3.83-3.27h.39v-1c0-1.79-1.84-3.26-3.83-3.26h-9c-2,0-3.83,1.47-3.83,3.26v9.6s6.61,2.47,12.52,1.48Z"/><path class="cls-1" d="M31.43,17.86c0-1.8-1.84-3.27-3.83-3.27h-.34v-.93c0-1.79,1.84-3.26,3.83-3.26h9c2,0,3.83,1.47,3.83,3.26v9.6s-6.58,2.4-12.49,1.45Z"/><path class="cls-1" d="M30.43,28.16v-9.6c0-1.8-1.84-3.27-3.83-3.27h-9c-2,0-3.83,1.47-3.83,3.27v9.6S24.06,32,30.43,28.16Z"/></g></g></svg>