<svg xmlns="http://www.w3.org/2000/svg" viewBox="0 0 1269.1 1268"><defs><style>.cls-1{fill:#3ba1e4;}</style></defs><g id="Calque_2" data-name="Calque 2"><g id="Calque_1-2" data-name="Calque 1"><path class="cls-1" d="M625,101.5V202.9l-3.2.5c-1.8.3-8.5.7-14.9,1-30.5,1.5-71.2,9.2-103.8,19.7C370,267.1,264.6,373.1,222.6,506a433.58,433.58,0,0,0-19.4,105.5l-.7,13H0V646H202.7l.6,14.7c1.4,33.4,8.7,73,19.8,108,9.1,28.6,28.2,69.7,44.7,95.9A438.61,438.61,0,0,0,420,1011.5a432.22,432.22,0,0,0,192.8,57.1l12.2.7V1268h21V1069.3l13.5-.7c93.6-4.7,185.8-41.5,258-103.1,11.8-10,35.5-33.5,45.9-45.5a454.34,454.34,0,0,0,61.1-91c24-47.8,40.9-109.4,43.9-160.5.4-5.5.9-12.8,1.2-16.3l.6-6.2h198.9l-.3-10.5-.3-10.5-99.5-.3-99.5-.2-.2-7.5c-.2-4.1-1-14.7-1.9-23.5-12.3-125.5-79-239-183.4-312.3-40.8-28.6-90.8-51.7-139.2-64.1-25.1-6.5-55.2-11.4-77.3-12.6-6-.3-13.4-.8-16.2-1.1l-5.3-.5V0H625Zm-.2,223.7-.3,100.3-9.5.8c-46.1,3.8-93.1,25.9-127.6,60.2a207.82,207.82,0,0,0-48.7,74.1c-6.6,16.8-12.3,42-12.9,56.9l-.3,7h199l.3-99.8L625,425h21l.2,99.7.3,99.8,99.8.3c90.9.2,99.8.1,100.4-1.4.9-2.3-1.4-20.2-4.3-33.2-8.7-39.4-28-74.1-57.3-103.2-24.5-24.4-50.8-40.6-83.6-51.4-12.1-4-31.1-8.1-42-9.1-3.8-.3-8.5-.8-10.2-1.1l-3.3-.5V225h8.5c11.4,0,34.6,2.5,52.5,5.6,158.4,27.3,287.9,146.5,328,301.9a393.91,393.91,0,0,1,12.7,79.5l.6,13-100.1-.3L848,624.5V646h200.3l-.6,14.2c-1.5,34.3-9.2,73.8-21.3,109C991,872,917.1,956.3,819.3,1005.3c-35.9,18.1-81.6,32.4-121.8,38.2-15.8,2.3-38.8,4.5-47.2,4.5H646V848H625v200h-3.3c-7.2,0-31-2.2-44.2-4.1-116.3-16.7-219.5-82-285.2-180.4C252,803,228,731,224.4,659.7l-.7-13.7H425.1l-.3-10.5-.3-10.5H224v-5.3c0-2.9.7-12.7,1.6-21.8,11.8-124.2,78-234.7,182.6-304.7,53-35.5,118.8-59.5,181.3-66.1,16-1.7,16.5-1.8,26.3-1.9l9.2-.2Z"/><path class="cls-1" d="M425,648.9c0,1.7.7,8.3,1.5,14.8,7.9,60.3,41.4,113.9,92.6,148.4a213,213,0,0,0,97.7,34.4l8.2.8V646H425Z"/><path class="cls-1" d="M646,746.5V847h3.4c6.4,0,26-3,36.1-5.4,86-21,149.6-92.2,160.4-179.6.6-4.6,1.1-10.1,1.1-12.2V646H646Z"/></g></g></svg>