<?xml version="1.0" encoding="utf-8"?>
<!-- Generator: Adobe Illustrator 24.1.3, SVG Export Plug-In . SVG Version: 6.00 Build 0)  -->
<svg version="1.1" id="Calque_1" xmlns="http://www.w3.org/2000/svg" xmlns:xlink="http://www.w3.org/1999/xlink" x="0px" y="0px"
	 viewBox="0 0 145.1 145.1" style="enable-background:new 0 0 145.1 145.1;" xml:space="preserve">
<style type="text/css">
	.st0{fill:#FFFFFF;stroke:#FFFFFF;stroke-miterlimit:10;}
</style>
<g id="Calque_2_1_">
	<g id="Calque_1-2">
		<path class="st0" d="M72.5,11.2c-33.9,0-61.3,27.5-61.3,61.4s27.5,61.3,61.4,61.3c33.8,0,61.3-27.5,61.3-61.3
			C133.9,38.7,106.4,11.2,72.5,11.2L72.5,11.2z M72.5,130.6c-32.1,0-58-26-58-58s26-58,58-58s58,26,58,58S104.6,130.6,72.5,130.6
			L72.5,130.6z"/>
		<polygon class="st0" points="99.2,48.7 97.7,47 72.5,70.8 47.4,47 45.9,48.7 70.8,72.4 45.5,96.4 47.2,98.1 72.5,74.1 97.9,98.1 
			99.6,96.4 74.3,72.4 		"/>
	</g>
</g>
</svg>
