<svg xmlns="http://www.w3.org/2000/svg" viewBox="0 0 65.02 73.39"><defs><style>.cls-1{fill:#3ba1e4;stroke:#fff;stroke-miterlimit:10;stroke-width:0.25px;}</style></defs><g id="Calque_2" data-name="Calque 2"><g id="Calque_1-2" data-name="Calque 1"><g id="Calque_2-2" data-name="Calque 2"><g id="Calque_1-2-2" data-name="Calque 1-2"><path class="cls-1" d="M13.29.13a12.46,12.46,0,0,1,5.09,1.2h0a7.44,7.44,0,0,1,4.25,6.34l.41,8A9.17,9.17,0,0,1,16.14,25h-.09a41.29,41.29,0,0,0,8.38,18h0A41.23,41.23,0,0,0,36.15,53a4.94,4.94,0,0,0,5.17-.24l3.79-2.54a4.51,4.51,0,0,1,3.71-.61l10.7,2.88a7.05,7.05,0,0,1,5,5.11h0a12.56,12.56,0,0,1,.31,4.32c-.69,6.92-7.36,12-14.28,11.28A56.41,56.41,0,0,1,.36,12,12.87,12.87,0,0,1,13.29.13Z"/></g></g></g></g></svg>