<svg xmlns="http://www.w3.org/2000/svg" viewBox="0 0 512 486.7"><defs><style>.cls-1{fill:#3ba1e4;}</style></defs><g id="Calque_2" data-name="Calque 2"><g id="Capa_1" data-name="Capa 1"><path class="cls-1" d="M503.38,216.2,273.68,6.9a26.15,26.15,0,0,0-35.4,0L8.58,216.2a26.28,26.28,0,0,0,17.7,45.7H63V471.6a15.09,15.09,0,0,0,15.1,15.1H204a15.09,15.09,0,0,0,15.1-15.1V344.2h74V471.5a15.09,15.09,0,0,0,15.1,15.1H434a15.09,15.09,0,0,0,15.1-15.1V261.8h36.7a26.17,26.17,0,0,0,17.6-45.6Z"/><path class="cls-1" d="M460.18,45.1A15.22,15.22,0,0,0,445.08,30H344l116.2,105.6Z"/></g></g></svg>