<svg id="Capa_1" data-name="Capa 1" xmlns="http://www.w3.org/2000/svg" viewBox="0 0 512 486.6"><defs><style>.cls-1{fill:#3ba1e4;}</style></defs><path class="cls-1" d="M472.61,224.29l-197.28-172a23.21,23.21,0,0,0-30.4,0l-197.28,172a20.93,20.93,0,0,0-1.46,30.49,23.22,23.22,0,0,0,16.66,7.07H94.37V434.19c0,6.82,5.75,12.33,12.88,12.41H215.38c7.13,0,13-5.51,13-12.41V329.48h63.56V434.11a12.69,12.69,0,0,0,13,12.41H413a12.66,12.66,0,0,0,12.88-12.41V261.85h31.52c12.46,0,22.59-9.7,22.59-21.62a21.37,21.37,0,0,0-7.39-15.94Z"/><path class="cls-1" d="M436.1,61.6H335L451.1,167.2V76.7A15.13,15.13,0,0,0,436.1,61.6Z"/></svg>