<svg id="Capa_1" data-name="Capa 1" xmlns="http://www.w3.org/2000/svg" viewBox="0 0 512 486.65"><defs><style>.cls-1{fill:#fff;}</style></defs><path class="cls-1" d="M503.4,228.88,273.68,19.57a26.12,26.12,0,0,0-35.36,0L8.6,228.89a26.26,26.26,0,0,0,17.68,45.66H63V484.27A15.06,15.06,0,0,0,78,499.33H203.94A15.06,15.06,0,0,0,219,484.27V356.93h74V484.27a15.06,15.06,0,0,0,15.06,15.06H434a15.05,15.05,0,0,0,15-15.06V274.55h36.7a26.26,26.26,0,0,0,17.68-45.67Z" transform="translate(0 -12.68)"/><path class="cls-1" d="M445.09,42.73H344L460.15,148.37V57.79A15.06,15.06,0,0,0,445.09,42.73Z" transform="translate(0 -12.68)"/></svg>