<?xml version="1.0" encoding="utf-8"?>
<!-- Generator: Adobe Illustrator 24.1.3, SVG Export Plug-In . SVG Version: 6.00 Build 0)  -->
<svg version="1.1" id="Calque_1" xmlns="http://www.w3.org/2000/svg" xmlns:xlink="http://www.w3.org/1999/xlink" x="0px" y="0px"
	 viewBox="0 0 130.5 130.5" style="enable-background:new 0 0 130.5 130.5;" xml:space="preserve">
<style type="text/css">
	.st0{fill:#009FE3;}
	.st1{fill:#E9E3D3;}
</style>
<g id="Calque_1-2">
	<g id="Calque_1-3">
		<circle class="st0" cx="65.3" cy="65.3" r="65.2"/>
		<g>
			<path class="st1" d="M102.8,71.6l-0.8-3c-0.8-3-3.8-4.9-6.3-4l-7,2.1l-6.9-24.4c-2.3-8-10.3-12.7-18.4-10.6
				c-3.3-3.5-8.6-3.8-12.1-0.5c-1.3,1.2-2.3,3-2.6,4.8h-0.1c-8,2.3-12.7,10.7-10.4,18.7l6.9,24.3c0,0.1,0,0.1,0.1,0.2l-6.6,2
				c-2.6,0.8-4,3.8-3.3,6.9l0.8,3c0.8,3,3.8,4.9,6.3,4l57.2-16.4C102.2,77.6,103.6,74.5,102.8,71.6z"/>
			<path class="st1" d="M73.9,89.5L73.9,89.5l-18.4,5.3l0,0l-0.5,0.2c1.5,5.4,7.1,8.4,12.5,6.9s8.4-7.1,6.9-12.5
				C74.5,89.5,73.9,89.5,73.9,89.5z"/>
		</g>
	</g>
</g>
</svg>
